<?xml version="1.0" standalone="no"?> <!DOCTYPE svg PUBLIC "-//W3C//DTD SVG 1.0//EN" "http://www.w3.org/TR/2001/REC-SVG-20010904/DTD/svg10.dtd" > <svg xmlns="http://www.w3.org/2000/svg" width="100%" height="100%">
<defs >
<font id="frutigerltstdbold" horiz-adv-x="543" ><font-face
    font-family="FrutigerLTStd-Bold"
    units-per-em="1000"
    panose-1="2 11 7 3 3 5 4 2 2 4"
    ascent="750"
    descent="-250"
    alphabetic="0" />
<missing-glyph horiz-adv-x="500" d="M0 0V700H500V0H0ZM250 395L420 650H80L250 395ZM280 350L450 95V605L280 350ZM80 50H420L250 305L80 50ZM50 605V95L220 350L50 605Z" />
<glyph unicode=" " glyph-name="space" horiz-adv-x="278" />
<glyph unicode="!" glyph-name="exclam" horiz-adv-x="389" d="M137 205L118 698H272L251 205H137ZM125 0V140H265V0H125Z" />
<glyph unicode="&quot;" glyph-name="quotedbl" horiz-adv-x="481" d="M271 448V698H393V448H271ZM88 448V698H210V448H88Z" />
<glyph unicode="#" glyph-name="numbersign" horiz-adv-x="556" d="M494 285V205H402L373 0H285L314 205H212L182 0H94L123 205H33V285H134L151 413H63V493H163L191 698H280L252 493H354L382 698H470L442 493H523V413H430L413 285H494ZM342 413H240L223 285H325L342 413Z" />
<glyph unicode="$" glyph-name="dollar" horiz-adv-x="556" d="M259 434V590Q204 565 204 503Q204 462 259 434ZM306 265V112Q364 137 364 188Q364 236 306 265ZM259 782H306V710Q395 710 469 685L456 570Q387 600 314 600Q309 600 306 599V414Q396 378 427 358Q510
302 510 199Q510 106 454 55T306 -8V-90H259V-11Q255 -12 248 -12Q212 -12 180 -8T133 -1T69 15L82 141Q161 98 240 98Q252 98 259 100V287Q166 323 133 347Q58 401 58 497Q58 593 114 645T259 708V782Z" />
<glyph unicode="%" glyph-name="percent" horiz-adv-x="1000" d="M729 68Q791 68 791 172T729 276Q693 276 679 245T665 172T679 100T729 68ZM809 -12T729 -12T605 36T561 172T605 307T729 356T852 308T895 172T852 37ZM354 342T274 342T150 390T106 526T150 661T274
710T397 662T440 526T397 391ZM274 422Q336 422 336 526T274 630Q238 630 224 599T210 526T224 454T274 422ZM245 -22L677 720H759L327 -22H245Z" />
<glyph unicode="&amp;" glyph-name="ampersand" horiz-adv-x="722" d="M434 134L279 307Q194 263 194 195Q194 150 228 121T312 92Q391 92 434 134ZM310 439Q343 456 372 484T401 540Q401 575 379 593T324 612Q291 612 268 593T244 538Q244 530 246 522T252 506T261
492T273 477T285 464T298 451T310 439ZM388 367L516 227Q556 273 560 379H682Q676 239 593 140L718 0H546L499 62Q426 -12 309 -12Q201 -12 131 42T60 191Q60 257 93 303T207 383Q170 418 156 433T126 481T110 551Q110 625 175 667T322 710T463 671T523 552Q523
486 489 446T388 367Z" />
<glyph unicode="&apos;" glyph-name="quotesingle" horiz-adv-x="278" d="M78 448V698H200V448H78Z" />
<glyph unicode="(" glyph-name="parenleft" horiz-adv-x="333" d="M199 756H326Q253 640 217 539T181 308Q181 89 326 -140H199Q39 78 39 308Q39 439 78 542T199 756Z" />
<glyph unicode=")" glyph-name="parenright" horiz-adv-x="333" d="M133 -140H7Q152 92 152 308Q152 436 116 537T7 756H133Q214 643 254 541T294 308Q294 81 133 -140Z" />
<glyph unicode="*" glyph-name="asterisk" horiz-adv-x="556" d="M484 506L345 475L441 368L349 302L278 426L202 302L111 368L209 475L72 506L105 610L238 553L222 698H336L319 554L452 610L484 506Z" />
<glyph unicode="+" glyph-name="plus" horiz-adv-x="600" d="M248 305V506H352V305H554V201H352V0H248V201H46V305H248Z" />
<glyph unicode="," glyph-name="comma" horiz-adv-x="278" d="M23 -110L87 140H232L141 -110H23Z" />
<glyph unicode="-" glyph-name="hyphen" horiz-adv-x="333" d="M298 214H35V324H298V214Z" />
<glyph unicode="." glyph-name="period" horiz-adv-x="278" d="M69 0V140H209V0H69Z" />
<glyph unicode="/" glyph-name="slash" horiz-adv-x="389" d="M21 -12L265 710H369L125 -12H21Z" />
<glyph unicode="0" glyph-name="zero" horiz-adv-x="556" d="M277 92Q299 92 316 102T343 126T362 165T373 209T379 259T381 304T381 347Q381 386 381 410T375 476T359 542T328 586T277 606Q253 606 235 594T206 558T188 512T179 454T176 399T175 347Q175 319
175 305T177 259T182 209T193 165T211 126T239 102T277 92ZM277 -12Q35 -12 35 347Q35 418 46 478T84 593T160 678T277 710Q336 710 380 688T451 630T493 544T515 448T521 347Q521 279 511 222T475 108T400 20T277 -12Z" />
<glyph unicode="1" glyph-name="one" horiz-adv-x="556" d="M79 534L283 698H407V0H267V539L149 443L79 534Z" />
<glyph unicode="2" glyph-name="two" horiz-adv-x="556" d="M505 0H41V117Q44 120 95 167T177 246T253 329T320 425T343 506Q343 551 310 575T229 600Q154 600 68 544L57 660Q155 710 264 710Q366 710 424 658T483 506Q483 386 339 230Q311 200 220 110H505V0Z" />
<glyph unicode="3" glyph-name="three" horiz-adv-x="556" d="M45 11L53 130Q134 98 208 98Q261 98 308 123T355 197Q355 306 201 306H133V416H197Q269 416 310 439T352 508Q352 600 232 600Q151 600 75 563L67 675Q156 710 262 710Q299 710 335 703T408 677T469
622T492 531Q492 413 362 364V362Q427 353 461 308T495 196Q495 148 478 111T435 51T372 14T301 -6T228 -12Q125 -12 45 11Z" />
<glyph unicode="4" glyph-name="four" horiz-adv-x="556" d="M142 249H317V552H315L142 249ZM16 145V258L277 698H451V249H540V145H451V0H317V145H16Z" />
<glyph unicode="5" glyph-name="five" horiz-adv-x="556" d="M490 698V594H221L218 445Q255 452 282 452Q322 452 359 442T430 407T486 336T507 225Q507 122 436 55T235 -12Q156 -12 72 8L75 133Q160 98 218 98Q280 98 323 128T367 221Q367 284 321 313T207 342Q142
342 82 323L89 698H490Z" />
<glyph unicode="6" glyph-name="six" horiz-adv-x="556" d="M478 685L460 572Q395 600 338 600T243 567T189 487T172 384L174 382Q222 452 309 452Q406 452 459 395T513 239Q513 122 455 55T281 -12Q44 -12 44 313Q44 373 52 427T80 534T132 625T215 686T331 710Q407
710 478 685ZM278 348Q230 348 207 311T184 216Q184 162 208 127T281 92Q327 92 350 128T373 217Q373 273 349 310T278 348Z" />
<glyph unicode="7" glyph-name="seven" horiz-adv-x="556" d="M50 588V698H500V582L252 0H100L359 588H50Z" />
<glyph unicode="8" glyph-name="eight" horiz-adv-x="556" d="M163 362V364Q109 388 78 430T47 526Q47 616 108 663T269 710T436 668T503 542Q503 492 473 445T387 375V374Q521 311 521 191Q521 90 456 39T281 -12T104 38T35 189Q35 300 163 362ZM181 522Q181
501 190 484T218 454T252 433T291 417Q321 428 345 457T369 518Q369 557 346 581T283 606Q242 606 212 584T181 522ZM175 191Q175 148 206 120T281 92T352 117T381 185Q381 268 264 306Q175 263 175 191Z" />
<glyph unicode="9" glyph-name="nine" horiz-adv-x="556" d="M79 13L97 126Q162 98 219 98T314 131T368 211T385 314L383 316Q336 246 248 246Q151 246 98 303T44 459Q44 576 102 643T276 710Q513 710 513 385Q513 325 505 271T477 164T425 73T342 12T226 -12Q150
-12 79 13ZM279 350Q327 350 350 387T373 482Q373 536 349 571T276 606Q230 606 207 570T184 481Q184 425 208 388T279 350Z" />
<glyph unicode=":" glyph-name="colon" horiz-adv-x="278" d="M69 375V515H209V375H69ZM69 0V140H209V0H69Z" />
<glyph unicode=";" glyph-name="semicolon" horiz-adv-x="278" d="M23 -110L87 140H232L141 -110H23ZM69 375V515H209V375H69Z" />
<glyph unicode="&lt;" glyph-name="less" horiz-adv-x="600" d="M554 94V-8L46 210V296L554 514V412L181 253L554 94Z" />
<glyph unicode="=" glyph-name="equal" horiz-adv-x="600" d="M554 414V310H46V414H554ZM554 196V92H46V196H554Z" />
<glyph unicode="&gt;" glyph-name="greater" horiz-adv-x="600" d="M46 94L419 253L46 412V514L554 296V210L46 -8V94Z" />
<glyph unicode="?" glyph-name="question" horiz-adv-x="500" d="M61 566L50 677Q161 710 248 710Q309 710 358 693T442 634T476 531Q476 493 458 457T413 393T361 336T319 274T306 204H183Q183 309 256 392Q262 398 274 411T292 431T306 449T319 469T326 490T330
515Q330 561 297 583T215 606Q148 606 61 566ZM175 0V140H315V0H175Z" />
<glyph unicode="@" glyph-name="at" horiz-adv-x="800" d="M415 446Q368 446 336 406T303 318Q303 282 323 259T378 236Q424 236 456 276T489 366Q489 402 469 424T415 446ZM631 143H716Q611 -12 400 -12Q333 -12 270 11T154 77T69 191T37 349Q37 500 147 605T424
710Q487 710 545 693T653 641T733 548T763 416Q763 344 734 287T661 200T579 154T511 138Q489 138 474 151T457 190H455Q409 138 354 138Q290 138 245 185T199 303Q199 402 259 473T405 544Q478 544 521 480L533 528H617L562 285Q555 259 555 251Q555 236 570 236Q613
236 648 281T683 413Q683 471 660 513T598 577T515 608T424 618Q302 618 222 538T141 349Q141 233 214 157T400 80Q556 80 631 143Z" />
<glyph unicode="A" glyph-name="A" horiz-adv-x="722" d="M459 270L358 558H356L255 270H459ZM9 0L281 698H439L713 0H558L498 160H215L154 0H9Z" />
<glyph unicode="B" glyph-name="B" horiz-adv-x="611" d="M221 312V110H287Q431 110 431 207Q431 240 419 262T385 294T340 308T287 312H221ZM221 588V416H278Q410 416 410 501Q410 524 402 541T381 567T350 581T314 587T275 588H221ZM81 0V698H325Q356 698 383
695T442 679T497 648T535 596T550 519Q550 458 512 416T411 363V361Q482 354 526 310T571 202Q571 140 546 97T480 35T402 8T325 0H81Z" />
<glyph unicode="C" glyph-name="C" horiz-adv-x="611" d="M583 127L589 10Q496 -12 430 -12Q254 -12 151 76T47 337Q47 515 149 612T430 710Q514 710 588 681L578 563Q513 600 427 600Q321 600 257 529T193 347Q193 238 257 168T430 98Q527 98 583 127Z" />
<glyph unicode="D" glyph-name="D" horiz-adv-x="722" d="M81 0V698H272Q675 698 675 349T272 0H81ZM221 588V110H299Q392 110 460 175T529 349T461 523T299 588H221Z" />
<glyph unicode="E" glyph-name="E" horiz-adv-x="556" d="M81 0V698H493V588H221V416H470V306H221V110H495V0H81Z" />
<glyph unicode="F" glyph-name="F" horiz-adv-x="500" d="M81 0V698H469V588H221V416H457V306H221V0H81Z" />
<glyph unicode="G" glyph-name="G" horiz-adv-x="722" d="M635 681L626 563Q546 600 446 600Q327 600 260 529T193 347Q193 238 257 168T430 98Q482 98 522 108V290H374V400H656V24Q523 -12 430 -12Q254 -12 151 76T47 337Q47 515 149 612T430 710Q538 710 635 681Z" />
<glyph unicode="H" glyph-name="H" horiz-adv-x="722" d="M81 0V698H221V416H501V698H641V0H501V306H221V0H81Z" />
<glyph unicode="I" glyph-name="I" horiz-adv-x="278" d="M69 0V698H209V0H69Z" />
<glyph unicode="J" glyph-name="J" horiz-adv-x="389" d="M22 1V122Q55 110 89 110Q121 110 141 121T168 154T178 191T180 233V698H320V166Q320 99 273 44T129 -12Q73 -12 22 1Z" />
<glyph unicode="K" glyph-name="K" horiz-adv-x="667" d="M81 0V698H221V398L473 698H645L358 369L657 0H474L223 324H221V0H81Z" />
<glyph unicode="L" glyph-name="L" horiz-adv-x="500" d="M81 0V698H221V110H492V0H81Z" />
<glyph unicode="M" glyph-name="M" horiz-adv-x="944" d="M81 0V698H305L471 169H473L639 698H863V0H729V576H727L539 0H405L217 576L215 574V0H81Z" />
<glyph unicode="N" glyph-name="N" horiz-adv-x="722" d="M74 0V698H246L512 176H514V698H648V0H477L210 522H208V0H74Z" />
<glyph unicode="O" glyph-name="O" horiz-adv-x="778" d="M47 351Q47 515 136 612T389 710Q550 710 640 612T731 351Q731 188 641 88T389 -12Q225 -12 136 87T47 351ZM193 351Q193 284 211 229T275 136T389 98T502 136T566 229T585 351Q585 454 536 527T389 600T243
527T193 351Z" />
<glyph unicode="P" glyph-name="P" horiz-adv-x="556" d="M209 588V375H258Q391 375 391 479Q391 536 354 562T258 588H209ZM69 0V698H246Q537 698 537 487Q537 372 464 319T268 265H209V0H69Z" />
<glyph unicode="Q" glyph-name="Q" horiz-adv-x="778" d="M713 -132H544L422 -10Q412 -12 389 -12Q225 -12 136 87T47 351Q47 515 136 612T389 710Q550 710 640 612T731 351Q731 237 686 152T555 25L713 -132ZM193 351Q193 284 211 229T275 136T389 98T502 136T566
229T585 351Q585 454 536 527T389 600T243 527T193 351Z" />
<glyph unicode="R" glyph-name="R" horiz-adv-x="611" d="M209 588V400H255Q285 400 308 403T354 415T390 445T403 497Q403 527 391 546T354 574T309 585T255 588H209ZM69 0V698H220Q224 698 231 698Q268 698 287 698T342 695T397 688T444 675T488 652T519 619T542
572T549 509Q549 446 510 401T405 347V345Q448 342 479 273L591 0H435L351 218Q335 259 316 274T254 290H209V0H69Z" />
<glyph unicode="S" glyph-name="S" horiz-adv-x="556" d="M469 685L456 570Q387 600 314 600Q270 600 237 578T204 503Q204 470 235 448T312 410T402 373T478 308T510 199Q510 91 437 40T248 -12Q212 -12 180 -8T133 -1T69 15L82 141Q161 98 240 98Q286 98 325
121T364 188Q364 224 333 248T256 288T166 326T90 390T58 497Q58 606 128 658T302 710Q394 710 469 685Z" />
<glyph unicode="T" glyph-name="T" horiz-adv-x="556" d="M208 0V588H8V698H548V588H348V0H208Z" />
<glyph unicode="U" glyph-name="U" horiz-adv-x="722" d="M76 252V698H216V295Q216 98 361 98T506 295V698H646V252Q646 -12 361 -12T76 252Z" />
<glyph unicode="V" glyph-name="V" horiz-adv-x="667" d="M250 0L10 698H160L339 150H341L518 698H657L422 0H250Z" />
<glyph unicode="W" glyph-name="W" horiz-adv-x="1000" d="M195 0L10 698H157L287 140H289L408 698H598L721 140H723L854 698H990L808 0H628L502 558H500L376 0H195Z" />
<glyph unicode="X" glyph-name="X" horiz-adv-x="667" d="M10 0L239 363L31 698H193L339 449L488 698H638L428 363L657 0H492L331 272L168 0H10Z" />
<glyph unicode="Y" glyph-name="Y" horiz-adv-x="667" d="M266 0V276L11 698H175L340 405L508 698H656L406 276V0H266Z" />
<glyph unicode="Z" glyph-name="Z" horiz-adv-x="556" d="M36 0V114L364 588H49V698H513V584L182 110H520V0H36Z" />
<glyph unicode="[" glyph-name="bracketleft" horiz-adv-x="333" d="M72 -140V756H296V658H200V-42H296V-140H72Z" />
<glyph unicode="\" glyph-name="backslash" horiz-adv-x="389" d="M264 -12L20 710H124L368 -12H264Z" />
<glyph unicode="]" glyph-name="bracketright" horiz-adv-x="333" d="M37 756H261V-140H37V-42H133V658H37V756Z" />
<glyph unicode="^" glyph-name="asciicircum" horiz-adv-x="600" d="M170 313H66L253 698H347L534 313H430L300 593L170 313Z" />
<glyph unicode="_" glyph-name="underscore" horiz-adv-x="500" d="M0 -75H500V-125H0V-75Z" />
<glyph unicode="`" glyph-name="grave" horiz-adv-x="278" d="M166 731L249 585H166L29 731H166Z" />
<glyph unicode="a" glyph-name="a" horiz-adv-x="556" d="M96 373L92 488Q177 527 271 527Q388 527 440 476T493 310V244Q493 191 495 115Q496 62 501 0H383Q381 10 377 77H375Q352 36 308 12T216 -12Q143 -12 90 29T36 141Q36 245 124 288Q185 318 297 318H371Q371
379 344 404T255 429Q170 429 96 373ZM164 149Q164 117 187 102T249 86Q308 86 343 132Q371 169 371 238H313Q164 238 164 149Z" />
<glyph unicode="b" glyph-name="b" horiz-adv-x="611" d="M204 259Q204 194 232 143T322 92Q363 92 390 120T426 183T435 259Q435 298 426 332T391 395T324 423Q265 423 235 373T204 259ZM69 0V750H203V449H205Q264 527 359 527Q470 527 522 452T575 259Q575 184
555 126T485 28T359 -12Q254 -12 201 63H199V0H69Z" />
<glyph unicode="c" glyph-name="c" horiz-adv-x="444" d="M415 510L403 404Q362 423 312 423Q250 423 213 378T176 260Q176 185 211 139T315 92Q363 92 418 116L424 5Q369 -12 290 -12Q167 -12 102 63T36 260Q36 376 102 451T285 527Q358 527 415 510Z" />
<glyph unicode="d" glyph-name="d" horiz-adv-x="611" d="M176 259Q176 219 185 184T221 120T289 92Q350 92 378 143T407 259Q407 322 377 372T287 423Q246 423 220 395T185 333T176 259ZM412 0V58H410Q354 -12 252 -12Q177 -12 127 27T56 125T36 259Q36 376 88
451T252 527Q347 527 406 455H408V750H542V0H412Z" />
<glyph unicode="e" glyph-name="e" horiz-adv-x="556" d="M164 308H392Q389 362 363 395T283 429Q229 429 199 396T164 308ZM482 138V29Q408 -12 305 -12Q177 -12 107 58T36 255Q36 373 98 450T275 527Q345 527 393 505T469 439T508 341T520 216H164Q168 155 208
121T311 86Q389 86 482 138Z" />
<glyph unicode="f" glyph-name="f" horiz-adv-x="389" d="M118 0V417H19V515H118V587Q118 666 161 714T282 762Q332 762 380 751L369 640Q338 658 311 658Q252 658 252 579V515H369V417H252V0H118Z" />
<glyph unicode="g" glyph-name="g" horiz-adv-x="611" d="M290 104Q350 104 379 148T408 263T380 378T296 423Q233 423 205 376T176 260Q176 201 206 153T290 104ZM414 515H542V50Q542 -222 270 -222Q175 -222 92 -187L103 -73Q136 -91 179 -104T253 -118Q296
-118 326 -105T371 -74T396 -26T406 26T408 82H406Q386 47 343 24T246 0Q139 0 88 73T36 260Q36 326 57 384T130 485T254 527Q361 527 412 445H414V515Z" />
<glyph unicode="h" glyph-name="h" horiz-adv-x="611" d="M69 0V750H203V445H205Q261 527 367 527Q455 527 498 472T542 325V0H408V275Q408 300 408 315T402 353T389 390T363 413T321 423Q287 423 262 406T225 362T208 307T203 252V0H69Z" />
<glyph unicode="i" glyph-name="i" horiz-adv-x="278" d="M72 0V515H206V0H72ZM72 609V737H206V609H72Z" />
<glyph unicode="j" glyph-name="j" horiz-adv-x="278" d="M-15 -214L-10 -118Q44 -115 58 -98T72 -20V515H206V-38Q206 -63 203 -85T190 -134T164 -178T118 -209T51 -222Q12 -222 -15 -214ZM72 609V737H206V609H72Z" />
<glyph unicode="k" glyph-name="k" horiz-adv-x="556" d="M72 0V750H206V309H208L368 515H526L334 285L550 0H380L208 250H206V0H72Z" />
<glyph unicode="l" glyph-name="l" horiz-adv-x="278" d="M72 0V750H206V0H72Z" />
<glyph unicode="m" glyph-name="m" horiz-adv-x="889" d="M67 0V515H192V443H194Q250 527 347 527Q458 527 499 436Q521 480 565 503T660 527Q749 527 786 474T823 325V0H689V307Q689 327 689 338T684 368T673 397T650 415T612 423Q512 423 512 250V0H378V307Q378
327 378 338T373 368T362 397T339 415T301 423Q201 423 201 250V0H67Z" />
<glyph unicode="n" glyph-name="n" horiz-adv-x="611" d="M69 0V515H196V445H198Q256 527 367 527Q455 527 498 472T542 325V0H408V275Q408 300 408 315T402 353T389 390T363 413T321 423Q287 423 262 406T225 362T208 307T203 252V0H69Z" />
<glyph unicode="o" glyph-name="o" horiz-adv-x="611" d="M36 254Q36 379 112 453T305 527T498 453T575 254Q575 139 503 64T305 -12Q181 -12 109 63T36 254ZM176 270Q176 195 205 144T305 92Q342 92 368 107T409 149T429 205T435 270Q435 334 401 378T305 423T210
378T176 270Z" />
<glyph unicode="p" glyph-name="p" horiz-adv-x="611" d="M69 -210V515H197V442H199Q250 527 359 527Q470 527 522 452T575 259Q575 204 563 157T526 71T458 10T356 -12Q310 -12 274 3T205 59H203V-210H69ZM324 423Q265 423 235 373T204 259Q204 194 232 143T322
92Q363 92 390 120T426 183T435 259Q435 298 426 332T391 395T324 423Z" />
<glyph unicode="q" glyph-name="q" horiz-adv-x="611" d="M408 -210V59H406Q373 19 337 4T255 -12Q197 -12 154 10T85 71T48 157T36 259Q36 376 89 451T255 527Q361 527 412 442H414V515H542V-210H408ZM287 423Q246 423 220 395T185 333T176 259Q176 219 185 184T221
120T289 92Q350 92 378 143T407 259Q407 322 377 372T287 423Z" />
<glyph unicode="r" glyph-name="r" horiz-adv-x="389" d="M72 0V515H191V398H193Q198 440 238 483T334 527Q361 527 375 523V388Q356 399 315 399Q289 399 270 390T239 361T220 323T210 276T207 231T206 189V0H72Z" />
<glyph unicode="s" glyph-name="s" horiz-adv-x="444" d="M384 508L375 407Q311 429 255 429Q223 429 200 416T176 372Q176 350 200 337T258 314T326 290T385 242T409 156Q409 72 347 30T193 -12Q124 -12 41 10L49 120Q117 86 181 86Q214 86 241 100T269 149Q269
172 252 187T209 208T153 226T97 250T54 293T36 367Q36 446 94 486T238 527Q295 527 384 508Z" />
<glyph unicode="t" glyph-name="t" horiz-adv-x="389" d="M113 155V417H14V515H113V618L247 661V515H366V417H247V177Q247 92 310 92Q349 92 371 106L375 0Q333 -12 276 -12Q198 -12 156 32T113 155Z" />
<glyph unicode="u" glyph-name="u" horiz-adv-x="611" d="M542 515V0H415V70H413Q346 -12 244 -12Q156 -12 113 43T69 190V515H203V240Q203 215 203 200T209 162T222 125T248 102T290 92Q324 92 349 109T386 153T403 208T408 263V515H542Z" />
<glyph unicode="v" glyph-name="v" horiz-adv-x="556" d="M203 0L12 515H156L284 140H286L410 515H544L354 0H203Z" />
<glyph unicode="w" glyph-name="w" horiz-adv-x="889" d="M185 0L11 515H153L267 134H269L373 515H529L641 134H643L750 515H878L720 0H562L450 393H448L338 0H185Z" />
<glyph unicode="x" glyph-name="x" horiz-adv-x="556" d="M186 270L27 515H185L286 347L385 515H527L373 270L547 0H387L272 192L156 0H9L186 270Z" />
<glyph unicode="y" glyph-name="y" horiz-adv-x="556" d="M159 515L283 139H285L409 515H545L352 4Q349 -4 343 -20Q330 -55 323 -72T302 -118T275 -161T241 -192T196 -215T138 -222Q91 -222 43 -208L52 -109Q78 -118 121 -118Q161 -118 184 -93T208 -26L11 515H159Z" />
<glyph unicode="z" glyph-name="z" horiz-adv-x="500" d="M47 411V515H455V405L199 104H464V0H36V109L297 411H47Z" />
<glyph unicode="{" glyph-name="braceleft" horiz-adv-x="333" d="M18 265V351Q51 351 75 373T100 444V621Q100 686 144 721T248 756H323V676H278Q247 676 238 659T228 603V430Q228 397 217 373T188 336T152 317T116 309V307Q228 297 228 179V13Q228 -26 237 -43T278
-60H323V-140H248Q187 -140 144 -105T100 -5V165Q100 218 76 241T18 265Z" />
<glyph unicode="|" glyph-name="bar" horiz-adv-x="222" d="M59 750H163V-250H59V750Z" />
<glyph unicode="}" glyph-name="braceright" horiz-adv-x="333" d="M315 351V265Q282 265 258 242T233 165V-5Q233 -71 190 -105T85 -140H10V-60H55Q86 -60 95 -43T105 13V179Q105 297 217 307V309Q198 311 181 317T146 335T116 372T105 430V603Q105 641 96 658T55
676H10V756H85Q147 756 190 722T233 621V444Q233 395 257 373T315 351Z" />
<glyph unicode="~" glyph-name="asciitilde" horiz-adv-x="600" d="M105 164L69 252Q115 340 190 340Q243 340 307 306Q310 305 324 298T342 289T358 282T376 276T393 272T412 270Q428 270 444 282T470 306T495 342L531 254Q479 166 416 166Q368 166 300 201Q234
236 191 236Q138 236 105 164Z" />
</font>
</defs>
</svg>
